<svg style="position: absolute; width: 0; height: 0; overflow: hidden;" aria-hidden="true" version="1.1" xmlns="http://www.w3.org/2000/svg" xmlns:xlink="http://www.w3.org/1999/xlink">
    <style>
        .default-palette, .palette0 {color: currentColor;
            --color0: #101828;
            --color1: #3470ff;
            --color2: #f2f4f7;
        }
    </style>
    <defs>
        <symbol id="fuel" viewBox="0 0 16 16" fill="none">
            <g fill="var(--color0, #101828)" clip-path="url(#clip0_1_1254)">
                <path d="M3 2.5c0-0.1326 0.0527-0.2598 0.1465-0.3535C3.2402 2.0527 3.3674 2 3.5 2h5c0.1326 0 0.2598 0.0527 0.3536 0.1465C8.9473 2.2402 9 2.3674 9 2.5v5c0 0.1326-0.0527 0.2598-0.1464 0.3536C8.7598 7.9473 8.6326 8 8.5 8h-5C3.3674 8 3.2402 7.9473 3.1465 7.8536 3.0527 7.7598 3 7.6326 3 7.5z" />
                <path d="M1 2c0-0.5304 0.2107-1.0391 0.5858-1.4142C1.9609 0.2107 2.4696 0 3 0h6c0.5304 0 1.0391 0.2107 1.4142 0.5858C10.7893 0.9609 11 1.4696 11 2v8c0.5304 0 1.0391 0.2107 1.4142 0.5858S13 11.4696 13 12v0.5c0 0.1326 0.0527 0.2598 0.1464 0.3536C13.2402 12.9473 13.3674 13 13.5 13s0.2598-0.0527 0.3536-0.1464C13.9473 12.7598 14 12.6326 14 12.5V8h-0.5c-0.1326 0-0.2598-0.0527-0.3536-0.1464C13.0527 7.7598 13 7.6326 13 7.5V4.375c0-0.1326 0.0527-0.2598 0.1464-0.3536 0.0938-0.0937 0.221-0.1464 0.3536-0.1464h1.495c-0.011-0.476-0.053-0.894-0.201-1.222-0.0792-0.1907-0.2173-0.3512-0.394-0.458C14.216 2.085 13.936 2 13.5 2c-0.1326 0-0.2598-0.0527-0.3536-0.1464C13.0527 1.7598 13 1.6326 13 1.5s0.0527-0.2598 0.1464-0.3536C13.2402 1.0527 13.3674 1 13.5 1c0.564-13e-4 1.0347 0.1107 1.412 0.336 0.383 0.228 0.634 0.551 0.794 0.907C16.001 2.898 16 3.708 16 4.324v3.175c1e-4 0.0657-0.0127 0.1309-0.0378 0.1916-0.025 0.0608-0.0619 0.1161-0.1083 0.1626s-0.1016 0.0834-0.1623 0.1086C15.6308 7.987 15.5657 8 15.5 8H15v4.5c0 0.3978-0.158 0.7794-0.4393 1.0607S13.8978 14 13.5 14s-0.7794-0.158-1.0607-0.4393S12 12.8978 12 12.5V12c0-0.2652-0.1054-0.5196-0.2929-0.7071S11.2652 11 11 11v4h0.5c0.1326 0 0.2598 0.0527 0.3536 0.1464C11.9473 15.2402 12 15.3674 12 15.5s-0.0527 0.2598-0.1464 0.3536C11.7598 15.9473 11.6326 16 11.5 16h-11c-0.1326 0-0.2598-0.0527-0.3536-0.1464C0.0527 15.7598 0 15.6326 0 15.5s0.0527-0.2598 0.1464-0.3536C0.2402 15.0527 0.3674 15 0.5 15H1zM10 2c0-0.2652-0.1054-0.5196-0.2929-0.7071C9.5196 1.1054 9.2652 1 9 1H3C2.7348 1 2.4804 1.1054 2.2929 1.2929 2.1054 1.4804 2 1.7348 2 2v13h8z" />
            </g>
            <defs>
                <clipPath id="clip0_1_1254">
                    <rect fill="#fff" width="16" height="16" />
                </clipPath>
            </defs>
        </symbol>
        <symbol id="engine" viewBox="0 0 16 16" fill="none">
            <g fill="var(--color0, #101828)" clip-path="url(#clip0_1_1254)">
                <path d="M8.0009 4.754c-0.4263 0-0.8484 0.0839-1.2422 0.247C6.3649 5.1642 6.007 5.4033 5.7056 5.7047 5.4042 6.0061 5.1651 6.364 5.002 6.7578 4.8388 7.1516 4.7549 7.5737 4.7549 8c0 0.4262 0.0839 0.8483 0.2471 1.2422 0.1631 0.3938 0.4022 0.7516 0.7036 1.053 0.3014 0.3015 0.6593 0.5406 1.0531 0.7037s0.8159 0.2471 1.2422 0.2471c0.8609 0 1.6865-0.342 2.2953-0.9508C10.9049 9.6865 11.2469 8.8609 11.2469 8c0-0.8609-0.342-1.6866-0.9507-2.2953C9.6874 5.096 8.8618 4.754 8.0009 4.754zM5.7549 8c0-0.5957 0.2366-1.167 0.6578-1.5882C6.8339 5.9906 7.4052 5.754 8.0009 5.754c0.5957 0 1.1669 0.2366 1.5881 0.6578C10.0103 6.833 10.2469 7.4043 10.2469 8c0 0.5956-0.2366 1.1669-0.6579 1.5881-0.4212 0.4212-0.9924 0.6579-1.5881 0.6579-0.5957 0-1.167-0.2367-1.5882-0.6579C5.9915 9.1669 5.7549 8.5956 5.7549 8z" />
                <path d="M9.7965 1.343c-0.527-1.79-3.065-1.79-3.592 0l-0.094 0.319C6.0737 1.7869 6.0094 1.9021 5.9223 1.999 5.8352 2.0958 5.7276 2.172 5.6072 2.2218 5.4869 2.2717 5.3569 2.294 5.2268 2.2871c-0.13-69e-4-0.2569-0.0428-0.3713-0.1051l-0.292-0.16c-1.64-0.892-3.433 0.902-2.54 2.541l0.159 0.292c0.0623 0.1144 0.0982 0.2413 0.1051 0.3713 69e-4 0.1301-0.0154 0.2601-0.0653 0.3804-0.0498 0.1204-0.126 0.228-0.2229 0.3151C1.9026 6.0089 1.7874 6.0732 1.6625 6.11l-0.319 0.094c-1.79 0.527-1.79 3.065 0 3.592l0.319 0.094c0.1249 0.0368 0.2401 0.1011 0.3369 0.1882 0.0969 0.0871 0.1731 0.1947 0.2229 0.315 0.0499 0.1204 0.0722 0.2504 0.0653 0.3804-69e-4 0.1301-0.0428 0.257-0.1051 0.3714l-0.16 0.292c-0.892 1.64 0.901 3.434 2.541 2.54l0.292-0.159c0.1144-0.0623 0.2413-0.0982 0.3713-0.1051 0.1301-69e-4 0.2601 0.0154 0.3804 0.0652 0.1204 0.0499 0.228 0.1261 0.3151 0.2229 0.0871 0.0969 0.1514 0.212 0.1882 0.337l0.094 0.319c0.527 1.79 3.065 1.79 3.592 0l0.094-0.319c0.0368-0.125 0.1011-0.2401 0.1882-0.337 0.087-0.0968 0.1947-0.173 0.315-0.2229 0.1204-0.0498 0.2503-0.0721 0.3804-0.0652s0.257 0.0428 0.3714 0.1051l0.292 0.16c1.64 0.893 3.434-0.902 2.54-2.541l-0.159-0.292c-0.0623-0.1144-0.0982-0.2413-0.1051-0.3714-69e-4-0.13 0.0154-0.26 0.0652-0.3804 0.0499-0.1203 0.126-0.2279 0.2229-0.315 0.0969-0.0871 0.212-0.1514 0.337-0.1882l0.319-0.094c1.79-0.527 1.79-3.065 0-3.592l-0.319-0.094c-0.125-0.0368-0.2401-0.1011-0.337-0.1882s-0.173-0.1947-0.2229-0.3151c-0.0498-0.1203-0.0721-0.2503-0.0652-0.3804 69e-4-0.13 0.0428-0.2569 0.1051-0.3713l0.16-0.292c0.893-1.64-0.902-3.433-2.541-2.54l-0.292 0.159c-0.1144 0.0623-0.2413 0.0982-0.3714 0.1051s-0.26-0.0154-0.3804-0.0653c-0.1203-0.0498-0.228-0.126-0.315-0.2229-0.0871-0.0968-0.1514-0.212-0.1882-0.3369zM7.1635 1.626c0.246-0.835 1.428-0.835 1.674 0l0.094 0.319c0.079 0.2681 0.217 0.5151 0.4039 0.7229 0.1869 0.2078 0.4179 0.3712 0.6762 0.4781 0.2582 0.1069 0.5371 0.1547 0.8162 0.1398 0.2791-0.0149 0.5513-0.092 0.7967-0.2258l0.291-0.16c0.764-0.415 1.6 0.42 1.184 1.185l-0.159 0.292c-0.1336 0.2454-0.2105 0.5176-0.2253 0.7966-0.0147 0.2791 0.0332 0.5579 0.1402 0.816 0.107 0.2581 0.2704 0.489 0.4782 0.6758 0.2079 0.1867 0.4548 0.3247 0.7229 0.4036l0.318 0.094c0.835 0.246 0.835 1.428 0 1.674l-0.319 0.094c-0.2681 0.079-0.5151 0.217-0.7229 0.4039-0.2078 0.1869-0.3712 0.4179-0.4781 0.6762-0.1069 0.2582-0.1547 0.5371-0.1398 0.8162s0.092 0.5513 0.2258 0.7967l0.16 0.291c0.415 0.764-0.42 1.6-1.185 1.184l-0.291-0.159c-0.2455-0.1338-0.5178-0.2109-0.7969-0.2257-0.2792-0.0148-0.5581 0.0331-0.8163 0.1401-0.2583 0.107-0.4893 0.2705-0.6761 0.4784-0.1869 0.2079-0.3248 0.455-0.4037 0.7232l-0.094 0.318c-0.246 0.835-1.428 0.835-1.674 0l-0.094-0.319c-0.0791-0.268-0.2171-0.5148-0.4039-0.7225-0.1868-0.2077-0.4177-0.371-0.6758-0.4779-0.2581-0.1069-0.5369-0.1547-0.8159-0.14-0.2789 0.0148-0.5511 0.0918-0.7964 0.2254l-0.292 0.16c-0.764 0.415-1.6-0.42-1.184-1.185l0.159-0.291c0.1339-0.2455 0.2112-0.5178 0.2262-0.797 0.015-0.2792-0.0327-0.5582-0.1397-0.8166C3.0401 9.7521 2.8767 9.5209 2.6688 9.334 2.4608 9.147 2.2137 9.009 1.9455 8.93l-0.319-0.094c-0.835-0.246-0.835-1.428 0-1.674l0.319-0.094C2.2133 6.9889 2.46 6.8509 2.6676 6.6642 2.8752 6.4774 3.0384 6.2466 3.1453 5.9886 3.2522 5.7307 3.3001 5.4521 3.2854 5.1732 3.2707 4.8944 3.1939 4.6223 3.0605 4.377l-0.16-0.292c-0.415-0.764 0.42-1.6 1.185-1.184l0.292 0.159C4.6228 3.1936 4.895 3.2706 5.1739 3.2853c0.279 0.0148 0.5578-0.033 0.8159-0.1399 0.2581-0.1069 0.489-0.2702 0.6758-0.4779 0.1868-0.2077 0.3248-0.4546 0.4039-0.7225z" />
            </g>
        </symbol>
        <symbol id="car" viewBox="0 0 16 12" fill="var(--color0, #101828)">
            <path d="M3.999 7c0 0.2652-0.1053 0.5196-0.2929 0.7071C3.5186 7.8946 3.2642 8 2.999 8 2.7338 8 2.4795 7.8946 2.2919 7.7071 2.1044 7.5196 1.999 7.2652 1.999 7c0-0.2652 0.1054-0.5196 0.2929-0.7071C2.4795 6.1054 2.7338 6 2.999 6 3.2642 6 3.5186 6.1054 3.7061 6.2929 3.8937 6.4804 3.999 6.7348 3.999 7zM13.999 7c0 0.2652-0.1053 0.5196-0.2929 0.7071C13.5186 7.8946 13.2642 8 12.999 8s-0.5195-0.1054-0.7071-0.2929C12.1044 7.5196 11.999 7.2652 11.999 7s0.1054-0.5196 0.2929-0.7071C12.4795 6.1054 12.7338 6 12.999 6s0.5196 0.1054 0.7071 0.2929C13.8937 6.4804 13.999 6.7348 13.999 7zM5.999 6C5.7338 6 5.4795 6.1054 5.2919 6.2929 5.1044 6.4804 4.999 6.7348 4.999 7c0 0.2652 0.1054 0.5196 0.2929 0.7071C5.4795 7.8946 5.7338 8 5.999 8h4c0.2652 0 0.5196-0.1054 0.7071-0.2929C10.8937 7.5196 10.999 7.2652 10.999 7s-0.1053-0.5196-0.2929-0.7071C10.5186 6.1054 10.2642 6 9.999 6zM4.861 2.276 3.905 4.19C3.8659 4.2707 3.8488 4.3602 3.8553 4.4496 3.8619 4.539 3.8918 4.6251 3.9422 4.6992 3.9926 4.7733 4.0616 4.8328 4.1424 4.8718 4.2231 4.9107 4.3127 4.9277 4.402 4.921c0.91-0.073 2.35-0.17 3.597-0.17 1.247 0 2.688 0.097 3.597 0.17 0.0894 67e-4 0.179-0.0103 0.2597-0.0492 0.0807-0.039 0.1497-0.0985 0.2001-0.1726 0.0504-0.0742 0.0804-0.1602 0.0869-0.2496 66e-4-0.0894-0.0106-0.179-0.0497-0.2596l-0.956-1.913c-0.0414-0.0831-0.1052-0.1531-0.1841-0.202-0.079-0.0489-0.17-0.0749-0.2629-0.075H5.308C5.2153 2 5.1243 2.0258 5.0454 2.0746 4.9664 2.1233 4.9026 2.1931 4.861 2.276z" />
            <path d="M2.519 1.515c0.1929-0.45 0.5137-0.8335 0.9226-1.1028C3.8504 0.1429 4.3294-4e-4 4.819 0l6.362 0c1 0 1.904 0.596 2.298 1.515l0.792 1.848c0.075 0.175 0.21 0.319 0.38 0.404 0.5 0.25 0.855 0.715 0.965 1.262l0.335 1.679c0.0333 0.1613 0.0497 0.3247 0.049 0.49v0.413c0 0.814-0.39 1.543-1 1.997V11.5c0 0.1326-0.0527 0.2598-0.1464 0.3536C14.7598 11.9473 14.6326 12 14.5 12h-2c-0.1326 0-0.2598-0.0527-0.3536-0.1464C12.0527 11.7598 12 11.6326 12 11.5v-1.338c-1.292 0.048-2.745 0.088-4 0.088s-2.708-0.04-4-0.088V11.5c0 0.1326-0.0527 0.2598-0.1465 0.3536C3.7598 11.9473 3.6326 12 3.5 12h-2c-0.1326 0-0.2598-0.0527-0.3536-0.1464C1.0527 11.7598 1 11.6326 1 11.5V9.608C0.39 9.154 0 8.425 0 7.611V7.198c2e-4-0.1646 0.0166-0.3287 0.049-0.49l0.335-1.68c0.11-0.546 0.465-1.012 0.964-1.261 0.1712-0.0849 0.3063-0.2282 0.381-0.404l0.792-1.848zM4.819 1C4.5253 1 4.2381 1.0863 3.9929 1.248 3.7478 1.4098 3.5555 1.64 3.44 1.91L2.648 3.757C2.48 4.1501 2.1777 4.4705 1.795 4.661 1.6848 4.7156 1.5887 4.7949 1.5141 4.8928 1.4395 4.9906 1.3885 5.1043 1.365 5.225L1.029 6.904c-0.0197 0.0968-0.0297 0.1952-0.03 0.294v0.413c0 0.796 0.62 1.448 1.408 1.484 1.555 0.07 3.786 0.155 5.592 0.155s4.037-0.084 5.592-0.155c0.3806-0.0185 0.7394-0.1832 1.0017-0.4596 0.2622-0.2764 0.4078-0.6434 0.4063-1.0244V7.198c0-0.0987-0.01-0.1967-0.03-0.294l-0.335-1.68c-0.0236-0.1206-0.0747-0.2341-0.1493-0.3317-0.0746-0.0976-0.1706-0.1768-0.2807-0.2313-0.3827-0.1905-0.685-0.5109-0.853-0.904l-0.792-1.848c-0.1157-0.27-0.3082-0.5001-0.5535-0.6617C11.7601 1.0857 11.4728 0.9997 11.179 1z" />
        </symbol>
        <symbol id="Brandcalendar" viewBox="0 0 16 16" fill="none">
            <g fill="var(--color0, #101828)" clip-path="url(#clip0_1_1254)">
                <path d="M3.5 0c0.1326 0 0.2598 0.0527 0.3535 0.1464C3.9473 0.2402 4 0.3674 4 0.5V1h8V0.5c0-0.1326 0.0527-0.2598 0.1464-0.3536C12.2402 0.0527 12.3674 0 12.5 0s0.2598 0.0527 0.3536 0.1464C12.9473 0.2402 13 0.3674 13 0.5V1h1c0.5304 0 1.0391 0.2107 1.4142 0.5858C15.7893 1.9609 16 2.4696 16 3v11c0 0.5304-0.2107 1.0391-0.5858 1.4142S14.5304 16 14 16H2c-0.5304 0-1.0391-0.2107-1.4142-0.5858C0.2107 15.0391 0 14.5304 0 14V3c0-0.5304 0.2107-1.0391 0.5858-1.4142C0.9609 1.2107 1.4696 1 2 1h1V0.5c0-0.1326 0.0527-0.2598 0.1465-0.3536C3.2402 0.0527 3.3674 0 3.5 0zM2 2C1.7348 2 1.4804 2.1054 1.2929 2.2929 1.1054 2.4804 1 2.7348 1 3v11c0 0.2652 0.1054 0.5196 0.2929 0.7071C1.4804 14.8946 1.7348 15 2 15h12c0.2652 0 0.5196-0.1054 0.7071-0.2929S15 14.2652 15 14V3c0-0.2652-0.1054-0.5196-0.2929-0.7071S14.2652 2 14 2z" />
                <path d="M2.5 4c0-0.1326 0.0527-0.2598 0.1465-0.3535C2.7402 3.5527 2.8674 3.5 3 3.5h10c0.1326 0 0.2598 0.0527 0.3536 0.1465C13.4473 3.7402 13.5 3.8674 13.5 4v1c0 0.1326-0.0527 0.2598-0.1464 0.3536C13.2598 5.4473 13.1326 5.5 13 5.5H3c-0.1326 0-0.2598-0.0527-0.3535-0.1464C2.5527 5.2598 2.5 5.1326 2.5 5zM11 7.5c0-0.1326 0.0527-0.2598 0.1464-0.3536C11.2402 7.0527 11.3674 7 11.5 7h1c0.1326 0 0.2598 0.0527 0.3536 0.1464C12.9473 7.2402 13 7.3674 13 7.5v1c0 0.1326-0.0527 0.2598-0.1464 0.3536C12.7598 8.9473 12.6326 9 12.5 9h-1c-0.1326 0-0.2598-0.0527-0.3536-0.1464C11.0527 8.7598 11 8.6326 11 8.5zM8 7.5c0-0.1326 0.0527-0.2598 0.1464-0.3536C8.2402 7.0527 8.3674 7 8.5 7h1c0.1326 0 0.2598 0.0527 0.3536 0.1464C9.9473 7.2402 10 7.3674 10 7.5v1c0 0.1326-0.0527 0.2598-0.1464 0.3536C9.7598 8.9473 9.6326 9 9.5 9h-1C8.3674 9 8.2402 8.9473 8.1465 8.8536 8.0527 8.7598 8 8.6326 8 8.5zM3 10.5c0-0.1326 0.0527-0.2598 0.1465-0.3536C3.2402 10.0527 3.3674 10 3.5 10h1c0.1326 0 0.2598 0.0527 0.3536 0.1464C4.9473 10.2402 5 10.3674 5 10.5v1c0 0.1326-0.0527 0.2598-0.1464 0.3536C4.7598 11.9473 4.6326 12 4.5 12h-1c-0.1326 0-0.2598-0.0527-0.3535-0.1464C3.0527 11.7598 3 11.6326 3 11.5zM6 10.5c0-0.1326 0.0527-0.2598 0.1464-0.3536C6.2402 10.0527 6.3674 10 6.5 10h1c0.1326 0 0.2598 0.0527 0.3536 0.1464C7.9473 10.2402 8 10.3674 8 10.5v1c0 0.1326-0.0527 0.2598-0.1464 0.3536C7.7598 11.9473 7.6326 12 7.5 12h-1c-0.1326 0-0.2598-0.0527-0.3536-0.1464C6.0527 11.7598 6 11.6326 6 11.5z" />
            </g>
        </symbol>
        <symbol id="up" viewBox="0 0 13 7" fill="none">
            <path fill="var(--color0, #101828)" clip-rule="evenodd" d="M6.1466 0.1469C6.1931 0.1003 6.2483 0.0634 6.309 0.0382 6.3697 0.013 6.4349 0 6.5006 0 6.5664 0 6.6315 0.013 6.6923 0.0382 6.753 0.0634 6.8082 0.1003 6.8546 0.1469l6 6c0.0939 0.0939 0.1467 0.2212 0.1467 0.354s-0.0528 0.2601-0.1467 0.354-0.2212 0.1466-0.354 0.1466c-0.1327 0-0.2601-0.0527-0.354-0.1466l-5.646-5.647-5.646 5.647c-0.0939 0.0939-0.2212 0.1466-0.354 0.1466-0.1327 0-0.2601-0.0527-0.354-0.1466C0.0527 6.761 0 6.6337 0 6.5009c0-0.1328 0.0527-0.2601 0.1466-0.354z" fill-rule="evenodd" />
        </symbol>
        <symbol id="location" viewBox="0 0 16 16" fill="var(--color0, #101828)">
            <path d="M9.5306 8.3813c-0.4912 0.9956-1.1569 1.9875-1.8375 2.8781-0.6463 0.839-1.3367 1.6433-2.0681 2.4093-0.7314-0.766-1.4218-1.5703-2.0681-2.4093-0.6806-0.8906-1.3463-1.8825-1.8375-2.8781-0.4969-1.006-0.7819-1.9482-0.7819-2.7563 0-1.2432 0.4939-2.4355 1.3729-3.3146 0.8791-0.879 2.0714-1.3729 3.3146-1.3729s2.4355 0.4939 3.3146 1.3729c0.879 0.8791 1.3729 2.0714 1.3729 3.3146 0 0.8081-0.2859 1.7503-0.7819 2.7562zM5.625 15c0 0 5.625-5.3306 5.625-9.375 0-1.4918-0.5926-2.9226-1.6475-3.9775C8.5476 0.5926 7.1168 0 5.625 0S2.7024 0.5926 1.6475 1.6475C0.5926 2.7024 0 4.1332 0 5.625 0 9.6694 5.625 15 5.625 15z" />
            <path d="M5.625 7.5c-0.4973 0-0.9742-0.1975-1.3258-0.5492C3.9475 6.5992 3.75 6.1223 3.75 5.625s0.1975-0.9742 0.5492-1.3258C4.6508 3.9475 5.1277 3.75 5.625 3.75s0.9742 0.1975 1.3258 0.5492C7.3025 4.6508 7.5 5.1277 7.5 5.625S7.3025 6.5992 6.9508 6.9508C6.5992 7.3025 6.1223 7.5 5.625 7.5zM5.625 8.4375c0.7459 0 1.4613-0.2963 1.9887-0.8238 0.5275-0.5274 0.8238-1.2428 0.8238-1.9887S8.1412 4.1637 7.6137 3.6363C7.0863 3.1088 6.3709 2.8125 5.625 2.8125S4.1637 3.1088 3.6363 3.6363C3.1088 4.1637 2.8125 4.8791 2.8125 5.625s0.2963 1.4613 0.8238 1.9887C4.1637 8.1412 4.8791 8.4375 5.625 8.4375z" />
        </symbol>
        <symbol id="like2" viewBox="0 0 16 15" fill="none">
            <path fill="var(--color1, #3470ff)" clip-rule="evenodd" d="M7.9998 1.3141c4.438-4.562 15.534 3.421 0 13.686-15.534-10.2641-4.438-18.248 0-13.686z" fill-rule="evenodd" />
        </symbol>
        <symbol id="like" viewBox="0 0 16 16" fill="none">
            <path fill="var(--color2, #f2f4f7)" d="M7.9999 2.7481l-0.717-0.737c-1.683-1.7301-4.769-1.1331-5.883 1.042-0.523 1.023-0.641 2.5 0.314 4.385 0.92 1.815 2.834 3.9889 6.286 6.3569 3.452-2.368 5.365-4.5419 6.286-6.3569 0.955-1.886 0.838-3.362 0.314-4.385-1.114-2.1751-4.2-2.7731-5.883-1.043zM7.9999 15C-7.3331 4.8681 3.2789-3.0399 7.8239 1.143c0.06 0.0554 0.1187 0.1124 0.176 0.171 0.0563-0.059 0.115-0.1157 0.176-0.17 4.544-4.1859 15.157 3.7231-0.176 13.856z" />
        </symbol>
        <symbol id="chevron-down" viewBox="0 0 16 16" fill="none">
            <path fill="var(--color0, #101828)" clip-rule="evenodd" d="M1.1469 4.1469c0.0464-0.0466 0.1016-0.0835 0.1624-0.1087C1.37 4.013 1.4351 4 1.5009 4 1.5667 4 1.6318 4.013 1.6925 4.0382 1.7533 4.0634 1.8085 4.1003 1.8549 4.1469l5.646 5.647 5.646-5.647c0.0465-0.0465 0.1017-0.0834 0.1624-0.1085 0.0607-0.0252 0.1259-0.0381 0.1916-0.0381 0.0657 0 0.1308 0.0129 0.1916 0.0381 0.0607 0.0251 0.1159 0.062 0.1624 0.1085 0.0465 0.0465 0.0834 0.1017 0.1085 0.1624 0.0252 0.0607 0.0381 0.1258 0.0381 0.1916 0 0.0657-0.0129 0.1308-0.0381 0.1916-0.0251 0.0607-0.062 0.1159-0.1085 0.1624l-6 6c-0.0464 0.0466-0.1016 0.0835-0.1624 0.1087-0.0607 0.0252-0.1258 0.0382-0.1916 0.0382s-0.1309-0.013-0.1916-0.0382c-0.0608-0.0252-0.116-0.0621-0.1624-0.1087l-6-6C1.1003 4.8085 1.0634 4.7533 1.0382 4.6925 1.013 4.6318 1 4.5667 1 4.5009 1 4.4351 1.013 4.37 1.0382 4.3093c0.0252-0.0608 0.0621-0.116 0.1087-0.1624z" fill-rule="evenodd" />
        </symbol>
        <symbol id="check-circle" viewBox="0 0 16 16" fill="none">
            <g fill="var(--color0, #101828)" clip-path="url(#clip0_1_1254)">
                <path d="M8 15c-1.8565 0-3.637-0.7375-4.9497-2.0503C1.7375 11.637 1 9.8565 1 8s0.7375-3.637 2.0503-4.9497C4.363 1.7375 6.1435 1 8 1s3.637 0.7375 4.9497 2.0503C14.2625 4.363 15 6.1435 15 8s-0.7375 3.637-2.0503 4.9497C11.637 14.2625 9.8565 15 8 15zM8 16c2.1217 0 4.1566-0.8429 5.6569-2.3431C15.1571 12.1566 16 10.1217 16 8c0-2.1217-0.8429-4.1566-2.3431-5.6569C12.1566 0.8429 10.1217 0 8 0 5.8783 0 3.8434 0.8429 2.3432 2.3432 0.8429 3.8434 0 5.8783 0 8c0 2.1217 0.8429 4.1566 2.3432 5.6569C3.8434 15.1571 5.8783 16 8 16z" />
                <path d="M10.9703 4.97l-0.02 0.022-3.473 4.425-2.093-2.094C5.2422 7.1905 5.0541 7.1184 4.8598 7.1218 4.6655 7.1253 4.4801 7.204 4.3427 7.3414 4.2053 7.4788 4.1266 7.6642 4.1232 7.8585 4.1197 8.0528 4.1919 8.2408 4.3243 8.383l2.646 2.647c0.0713 0.0712 0.1562 0.1272 0.2496 0.1649 0.0934 0.0376 0.1935 0.056 0.2942 0.0542 0.1007-19e-4 0.2-0.024 0.2919-0.0651 0.092-0.0411 0.1747-0.1002 0.2433-0.174l3.992-4.99c0.136-0.1427 0.2103-0.3331 0.2069-0.5301-33e-4-0.1971-0.0841-0.3849-0.2248-0.5228s-0.3301-0.215-0.5271-0.2144c-0.1971 5e-4-0.386 0.0786-0.526 0.2173z" />
            </g>
        </symbol>
        
    </defs>
</svg>